<svg xmlns="http://www.w3.org/2000/svg" xmlns:svg="http://www.w3.org/2000/svg" xmlns:xlink="http://www.w3.org/1999/xlink" id="Layer_1" width="120" height="60" x="0" y="0" version="1.1" viewBox="0 0 120 60" xml:space="preserve"><metadata id="metadata39"/><defs id="defs37"><defs id="defs5"><rect id="SVGID_1_" width="271.8" height="296.2" x="22.9" y="13.6"/></defs><clipPath id="SVGID_2_"><use id="use7" style="overflow:visible" width="100%" height="100%" x="0" y="0" xlink:href="#SVGID_1_"/></clipPath></defs><style id="style2" type="text/css">.st0{fill:#e13eaf}.st0,.st1,.st2,.st3{clip-path:url(#SVGID_2_)}.st1{fill:#4a0d66}.st2{fill:#b31aab}.st3{fill:#d163ce}</style><g id="g915" transform="translate(1.7000005e-8,0.19008904)"><g id="g892" transform="translate(3.7673845,2.3969722)"><path style="fill:#4a0d66" id="path10" d="m 35.5,260.3 c 0,2.2 0.5,4.3 1.5,6.1 1,1.8 2.3,3.4 3.8,4.7 1.6,1.3 3.4,2.3 5.5,3 2.1,0.7 4.3,1.1 6.5,1.1 3,0 5.7,-0.7 7.9,-2.1 2.2,-1.4 4.3,-3.3 6.2,-5.6 l 7.4,5.6 c -5.4,7 -13,10.5 -22.7,10.5 -4,0 -7.7,-0.7 -11,-2.1 -3.3,-1.4 -6.1,-3.3 -8.3,-5.7 -2.3,-2.4 -4,-5.3 -5.2,-8.5 -1.2,-3.3 -1.8,-6.8 -1.8,-10.7 0,-3.8 0.7,-7.4 2,-10.7 1.3,-3.3 3.2,-6.1 5.5,-8.5 2.3,-2.4 5.1,-4.3 8.4,-5.7 3.2,-1.4 6.8,-2.1 10.6,-2.1 4.5,0 8.4,0.8 11.5,2.4 3.1,1.6 5.7,3.7 7.7,6.2 2,2.6 3.5,5.4 4.4,8.7 0.9,3.2 1.4,6.5 1.4,9.8 v 3.5 H 35.5 Z m 30.8,-7.7 c -0.1,-2.2 -0.4,-4.1 -1,-5.9 -0.6,-1.8 -1.5,-3.4 -2.8,-4.7 -1.2,-1.3 -2.8,-2.4 -4.6,-3.1 -1.8,-0.8 -4,-1.1 -6.4,-1.1 -2.4,0 -4.6,0.5 -6.5,1.4 -2,0.9 -3.7,2.1 -5,3.5 -1.4,1.4 -2.4,3 -3.2,4.8 -0.8,1.8 -1.1,3.5 -1.1,5.2 h 30.6 z" class="st1" clip-path="url(#SVGID_2_)" transform="matrix(0.21693486,0,0,0.21693486,21.729126,-10.910708)"/><path style="fill:#4a0d66" id="path12" d="m 85.1,231.1 h 9.7 V 239 H 95 c 1.2,-2.7 3.4,-5 6.4,-6.6 3,-1.7 6.5,-2.5 10.5,-2.5 2.5,0 4.8,0.4 7.1,1.1 2.3,0.8 4.3,1.9 5.9,3.5 1.7,1.6 3,3.6 4.1,6.1 1,2.5 1.5,5.4 1.5,8.8 v 33 h -9.7 v -30.3 c 0,-2.4 -0.3,-4.4 -1,-6.1 -0.6,-1.7 -1.5,-3.1 -2.6,-4.1 -1.1,-1 -2.3,-1.8 -3.7,-2.3 -1.4,-0.5 -2.9,-0.7 -4.4,-0.7 -2,0 -3.9,0.3 -5.6,1 -1.7,0.7 -3.2,1.7 -4.5,3.1 -1.3,1.4 -2.3,3.2 -3,5.4 -0.7,2.2 -1.1,4.7 -1.1,7.7 v 26.4 h -9.7 v -51.4 z" class="st1" clip-path="url(#SVGID_2_)" transform="matrix(0.21693486,0,0,0.21693486,21.729126,-10.910708)"/><polygon style="fill:#4a0d66" id="polygon14" points="144.9 231.1 160.2 270.4 174.9 231.1 185.3 231.1 165.2 282.4 154.5 282.4 133.6 231.1" class="st1" clip-path="url(#SVGID_2_)" transform="matrix(0.21693486,0,0,0.21693486,21.729126,-10.910708)"/><path style="fill:#4a0d66" id="path16" d="m 186,256.8 c 0,-3.7 0.7,-7.2 2.1,-10.5 1.4,-3.2 3.3,-6.1 5.8,-8.5 2.5,-2.4 5.3,-4.4 8.7,-5.8 3.3,-1.4 6.9,-2.1 10.7,-2.1 3.8,0 7.4,0.7 10.7,2.1 3.3,1.4 6.2,3.3 8.7,5.8 2.4,2.5 4.4,5.3 5.8,8.5 1.4,3.2 2.1,6.7 2.1,10.5 0,3.7 -0.7,7.3 -2.1,10.5 -1.4,3.3 -3.3,6.1 -5.8,8.5 -2.5,2.4 -5.3,4.3 -8.7,5.7 -3.3,1.4 -6.9,2.1 -10.7,2.1 -3.8,0 -7.4,-0.7 -10.7,-2.1 -3.3,-1.4 -6.2,-3.3 -8.7,-5.7 -2.5,-2.4 -4.4,-5.3 -5.8,-8.5 -1.4,-3.3 -2.1,-6.8 -2.1,-10.5 m 10.3,0 c 0,2.6 0.4,5 1.2,7.2 0.8,2.2 1.9,4.1 3.4,5.6 1.4,1.6 3.2,2.8 5.3,3.7 2.1,0.9 4.4,1.4 7,1.4 2.6,0 4.9,-0.4 7,-1.4 2.1,-0.9 3.9,-2.1 5.3,-3.7 1.4,-1.5 2.6,-3.4 3.4,-5.6 0.8,-2.2 1.2,-4.6 1.2,-7.2 0,-2.6 -0.4,-5 -1.2,-7.2 -0.8,-2.2 -1.9,-4.1 -3.4,-5.6 -1.4,-1.5 -3.2,-2.8 -5.3,-3.7 -2.1,-0.9 -4.4,-1.4 -7,-1.4 -2.6,0 -4.9,0.5 -7,1.4 -2.1,0.9 -3.9,2.1 -5.3,3.7 -1.4,1.6 -2.6,3.4 -3.4,5.6 -0.8,2.2 -1.2,4.6 -1.2,7.2" class="st1" clip-path="url(#SVGID_2_)" transform="matrix(0.21693486,0,0,0.21693486,21.729126,-10.910708)"/><path style="fill:#4a0d66" id="path18" d="m 241.2,231.1 h 11.2 l 15.2,40 h 0.2 l 14.6,-40 h 10.4 l -24.3,62.3 c -0.9,2.2 -1.8,4.3 -2.7,6.1 -0.9,1.8 -2,3.4 -3.3,4.7 -1.3,1.3 -2.9,2.3 -4.7,3 -1.8,0.7 -4.1,1.1 -6.7,1.1 -1.4,0 -2.9,-0.1 -4.4,-0.3 -1.5,-0.2 -2.9,-0.6 -4.3,-1.1 l 1.2,-8.9 c 1.9,0.8 3.9,1.2 5.8,1.2 1.5,0 2.8,-0.2 3.8,-0.6 1,-0.4 1.9,-1 2.7,-1.7 0.8,-0.8 1.4,-1.6 1.9,-2.6 0.5,-1 1,-2.2 1.5,-3.5 l 3.2,-8.1 z" class="st1" clip-path="url(#SVGID_2_)" transform="matrix(0.21693486,0,0,0.21693486,21.729126,-10.910708)"/></g><g id="g900" transform="translate(3.7783797,8.3894025)"><polygon style="fill:#b31aab" id="polygon20" points="117 121.2 116.7 107.6 102.4 98.7 102.7 112.3" class="st2" clip-path="url(#SVGID_2_)" transform="matrix(0.21693486,0,0,0.21693486,21.729126,-10.910708)"/><path style="fill:#b31aab" id="path22" d="m 137.3,155.2 -0.3,-13.3 -12.5,-7.8 c -0.2,-0.1 -0.4,-0.3 -0.5,-0.4 l 0.3,13.4 z" class="st2" clip-path="url(#SVGID_2_)" transform="matrix(0.21693486,0,0,0.21693486,21.729126,-10.910708)"/><path style="fill:#b31aab" id="path24" d="m 92.6,173.1 -32.7,-20.3 -0.8,-34 16,-6.9 -0.3,-13.6 -25.6,11 c -2,0.9 -3.2,2.7 -3.1,4.8 l 1,40.8 c 0,2.1 1.3,4.2 3.3,5.4 l 39.2,24.3 c 1.8,1.1 4,1.4 5.9,0.9 0.2,-0.1 0.4,-0.1 0.6,-0.2 l 24.1,-10.4 -13.1,-8.1 z" class="st2" clip-path="url(#SVGID_2_)" transform="matrix(0.21693486,0,0,0.21693486,21.729126,-10.910708)"/><path style="fill:#d163ce" id="path26" d="m 198.3,97.9 c -0.1,-2.4 -1.5,-4.9 -3.9,-6.3 l -47.6,-29.5 -1.5,0.6 0.3,14.3 37.7,23.4 0.9,38.2 14.4,8.9 0.8,-0.3 z" class="st3" clip-path="url(#SVGID_2_)" transform="matrix(0.21693486,0,0,0.21693486,21.729126,-10.910708)"/><path style="fill:#d163ce" id="path28" d="M 141.3,165 97,137.6 95.9,91.6 116.1,82.9 115.7,67 84.4,80.5 c -2.3,1 -3.7,3.1 -3.6,5.6 l 1.3,54 c 0,2.5 1.5,4.9 3.9,6.3 l 51.9,32.2 c 2.1,1.3 4.7,1.7 6.9,1 0.2,-0.1 0.4,-0.2 0.6,-0.2 l 30.6,-13.2 -15.2,-9.4 z" class="st3" clip-path="url(#SVGID_2_)" transform="matrix(0.21693486,0,0,0.21693486,21.729126,-10.910708)"/><path style="fill:#e13eaf" id="path30" d="M 265.8,60.1 199.3,18.9 c -2.5,-1.5 -5.4,-1.9 -7.9,-1.1 -0.2,0.1 -0.5,0.2 -0.7,0.3 l -64.9,28 c -2.6,1.1 -4.2,3.5 -4.1,6.4 l 1.6,69.2 c 0.1,2.8 1.8,5.6 4.5,7.2 l 66.5,41.2 c 2.4,1.5 5.4,1.9 7.9,1.1 0.2,-0.1 0.5,-0.2 0.7,-0.3 l 64.9,-28 c 2.6,-1.1 4.2,-3.6 4.1,-6.4 l -1.6,-69.2 c -0.1,-2.8 -1.8,-5.5 -4.5,-7.2 m -67.6,94.5 -57.8,-35.8 -1.4,-60.1 56.4,-24.3 57.8,35.8 1.4,60.1 z" class="st0" clip-path="url(#SVGID_2_)" transform="matrix(0.21693486,0,0,0.21693486,21.729126,-10.910708)"/></g></g></svg>